<svg width="611" height="425" viewBox="0 0 611 425" fill="none" xmlns="http://www.w3.org/2000/svg">
<path d="M11.4072 11.8107H9.7308L3.72519 2.7929C3.57329 2.56673 3.44851 2.33005 3.35086 2.08284H3.30203C3.34543 2.32479 3.36713 2.84287 3.36713 3.63708V11.8107H2V0.497041H3.77402L9.61687 9.37278C9.861 9.74096 10.0183 9.99343 10.0889 10.1302H10.1214C10.0672 9.80408 10.04 9.24918 10.04 8.46548V0.497041H11.4072V11.8107Z" fill="white"/>
<path d="M20.9852 8.09468H15.1017C15.1234 8.99408 15.3729 9.68836 15.8503 10.1775C16.3278 10.6667 16.9842 10.9112 17.8197 10.9112C18.7582 10.9112 19.6208 10.6114 20.4074 10.0118V11.2268C19.6751 11.7423 18.7067 12 17.5023 12C16.325 12 15.4001 11.6345 14.7273 10.9034C14.0546 10.167 13.7183 9.13346 13.7183 7.80276C13.7183 6.54569 14.0845 5.52268 14.8169 4.73373C15.5547 3.93951 16.4688 3.54241 17.5593 3.54241C18.6497 3.54241 19.4933 3.88429 20.0901 4.56805C20.6868 5.25181 20.9852 6.20118 20.9852 7.41617V8.09468ZM19.6181 6.99803C19.6127 6.25115 19.4255 5.66995 19.0566 5.25444C18.6931 4.83892 18.1859 4.63116 17.5348 4.63116C16.9055 4.63116 16.3712 4.84944 15.9317 5.286C15.4923 5.72255 15.221 6.29323 15.1179 6.99803H19.6181Z" fill="white"/>
<path d="M33.5091 3.73176L31.0109 11.8107H29.6274L27.9104 6.02761C27.8453 5.80671 27.8019 5.55687 27.7802 5.27811H27.7476C27.7314 5.46746 27.6744 5.71203 27.5767 6.01183L25.7132 11.8107H24.3786L21.856 3.73176H23.2556L24.9808 9.80671C25.0351 9.9908 25.0731 10.2327 25.0948 10.5325H25.1599C25.1761 10.3011 25.225 10.0539 25.3063 9.79093L27.2268 3.73176H28.4475L30.1727 9.82248C30.2269 10.0171 30.2676 10.259 30.2947 10.5483H30.3598C30.3707 10.3432 30.4168 10.1012 30.4982 9.82248L32.1908 3.73176H33.5091Z" fill="white"/>
<path d="M46.1795 3.73176L42.8593 11.8107H41.5492L38.3917 3.73176H39.8565L41.9723 9.60158C42.1296 10.0329 42.2273 10.4089 42.2653 10.7298H42.2978C42.3521 10.3248 42.4389 9.95924 42.5582 9.63314L44.7717 3.73176H46.1795Z" fill="white"/>
<path d="M48.3034 1.68047C48.0647 1.68047 47.8613 1.60158 47.6931 1.44379C47.5249 1.286 47.4408 1.08613 47.4408 0.844181C47.4408 0.602235 47.5249 0.402367 47.6931 0.244576C47.8613 0.0815253 48.0647 0 48.3034 0C48.5476 0 48.7537 0.0815253 48.9219 0.244576C49.0955 0.402367 49.1823 0.602235 49.1823 0.844181C49.1823 1.07561 49.0955 1.27285 48.9219 1.4359C48.7537 1.59895 48.5476 1.68047 48.3034 1.68047ZM48.9544 11.8107H47.6199V3.73176H48.9544V11.8107Z" fill="white"/>
<path d="M51.1516 11.5187V10.1302C51.8786 10.6509 52.6788 10.9112 53.5522 10.9112C54.7241 10.9112 55.31 10.5325 55.31 9.77515C55.31 9.5595 55.2584 9.37804 55.1554 9.23077C55.0577 9.07824 54.9221 8.94412 54.7485 8.8284C54.5803 8.71269 54.3796 8.61013 54.1463 8.52071C53.9184 8.42604 53.6716 8.32873 53.4058 8.2288C53.0369 8.08679 52.7113 7.94477 52.4292 7.80276C52.1526 7.65549 51.9193 7.49244 51.7294 7.31361C51.5449 7.12952 51.4039 6.92176 51.3062 6.69034C51.214 6.45891 51.1679 6.18803 51.1679 5.87771C51.1679 5.49901 51.2574 5.16502 51.4364 4.87574C51.6155 4.5812 51.8542 4.33662 52.1526 4.14201C52.4509 3.94214 52.79 3.79224 53.1698 3.69231C53.555 3.59237 53.951 3.54241 54.3579 3.54241C55.0794 3.54241 55.725 3.66338 56.2946 3.90533V5.21499C55.6816 4.82577 54.9763 4.63116 54.1788 4.63116C53.9293 4.63116 53.7041 4.66009 53.5034 4.71795C53.3027 4.77055 53.1291 4.84681 52.9826 4.94675C52.8415 5.04668 52.7303 5.16765 52.649 5.30966C52.573 5.44642 52.535 5.59895 52.535 5.76726C52.535 5.97765 52.573 6.15385 52.649 6.29586C52.7303 6.43787 52.847 6.5641 52.9989 6.67456C53.1508 6.78501 53.3352 6.88494 53.5522 6.97436C53.7692 7.06377 54.0161 7.16108 54.2928 7.26627C54.6617 7.40302 54.9926 7.54504 55.2856 7.69231C55.5785 7.83432 55.8281 7.99737 56.0342 8.18146C56.2404 8.36029 56.3977 8.56805 56.5062 8.80473C56.6201 9.04142 56.6771 9.32281 56.6771 9.64892C56.6771 10.0487 56.5849 10.3958 56.4004 10.6903C56.2214 10.9849 55.98 11.2295 55.6762 11.4241C55.3724 11.6187 55.0224 11.7633 54.6264 11.858C54.2304 11.9527 53.8154 12 53.3813 12C52.5242 12 51.7809 11.8396 51.1516 11.5187Z" fill="white"/>
<path d="M59.4195 1.68047C59.1808 1.68047 58.9774 1.60158 58.8092 1.44379C58.641 1.286 58.5569 1.08613 58.5569 0.844181C58.5569 0.602235 58.641 0.402367 58.8092 0.244576C58.9774 0.0815253 59.1808 0 59.4195 0C59.6636 0 59.8698 0.0815253 60.038 0.244576C60.2116 0.402367 60.2984 0.602235 60.2984 0.844181C60.2984 1.07561 60.2116 1.27285 60.038 1.4359C59.8698 1.59895 59.6636 1.68047 59.4195 1.68047ZM60.0705 11.8107H58.7359V3.73176H60.0705V11.8107Z" fill="white"/>
<path d="M66.6376 11.7318C66.323 11.9001 65.908 11.9842 65.3926 11.9842C63.9332 11.9842 63.2035 11.1953 63.2035 9.61736V4.83629H61.7713V3.73176H63.2035V1.75937L64.5381 1.34122V3.73176H66.6376V4.83629H64.5381V9.38856C64.5381 9.93031 64.6331 10.3169 64.8229 10.5483C65.0128 10.7798 65.3275 10.8955 65.7669 10.8955C66.1033 10.8955 66.3935 10.806 66.6376 10.6272V11.7318Z" fill="white"/>
<path d="M71.9027 12C70.6712 12 69.6866 11.6239 68.9487 10.8718C68.2163 10.1144 67.8502 9.11243 67.8502 7.86588C67.8502 6.50888 68.2326 5.44905 68.9976 4.68639C69.7625 3.92373 70.796 3.54241 72.098 3.54241C73.3404 3.54241 74.3088 3.91322 75.0032 4.65483C75.703 5.39645 76.0529 6.42472 76.0529 7.73965C76.0529 9.02827 75.6759 10.0618 74.9218 10.8402C74.1731 11.6134 73.1668 12 71.9027 12ZM72.0004 4.63116C71.1432 4.63116 70.4651 4.91519 69.966 5.48323C69.4668 6.04602 69.2173 6.82446 69.2173 7.81854C69.2173 8.77581 69.4696 9.53057 69.9741 10.0828C70.4786 10.6351 71.1541 10.9112 72.0004 10.9112C72.863 10.9112 73.5248 10.6404 73.986 10.0986C74.4525 9.55687 74.6858 8.78632 74.6858 7.78698C74.6858 6.77712 74.4525 5.99869 73.986 5.45168C73.5248 4.90467 72.863 4.63116 72.0004 4.63116Z" fill="white"/>
<path d="M82.5305 5.04142C82.2973 4.86785 81.9609 4.78106 81.5215 4.78106C80.9518 4.78106 80.4744 5.04142 80.0892 5.56213C79.7095 6.08284 79.5196 6.7929 79.5196 7.69231V11.8107H78.185V3.73176H79.5196V5.39645H79.5521C79.742 4.8284 80.0323 4.38659 80.4229 4.07101C80.8135 3.75016 81.2502 3.58974 81.733 3.58974C82.0803 3.58974 82.3461 3.62656 82.5305 3.7002V5.04142Z" fill="white"/>
<path d="M83.4745 11.5187V10.1302C84.2015 10.6509 85.0017 10.9112 85.8751 10.9112C87.047 10.9112 87.6329 10.5325 87.6329 9.77515C87.6329 9.5595 87.5813 9.37804 87.4783 9.23077C87.3806 9.07824 87.245 8.94412 87.0714 8.8284C86.9032 8.71269 86.7025 8.61013 86.4692 8.52071C86.2413 8.42604 85.9945 8.32873 85.7287 8.2288C85.3597 8.08679 85.0342 7.94477 84.7521 7.80276C84.4754 7.65549 84.2422 7.49244 84.0523 7.31361C83.8678 7.12952 83.7268 6.92176 83.6291 6.69034C83.5369 6.45891 83.4908 6.18803 83.4908 5.87771C83.4908 5.49901 83.5803 5.16502 83.7593 4.87574C83.9384 4.5812 84.1771 4.33662 84.4754 4.14201C84.7738 3.94214 85.1129 3.79224 85.4927 3.69231C85.8778 3.59237 86.2739 3.54241 86.6808 3.54241C87.4023 3.54241 88.0479 3.66338 88.6175 3.90533V5.21499C88.0045 4.82577 87.2992 4.63116 86.5017 4.63116C86.2522 4.63116 86.027 4.66009 85.8263 4.71795C85.6256 4.77055 85.452 4.84681 85.3055 4.94675C85.1644 5.04668 85.0532 5.16765 84.9718 5.30966C84.8959 5.44642 84.8579 5.59895 84.8579 5.76726C84.8579 5.97765 84.8959 6.15385 84.9718 6.29586C85.0532 6.43787 85.1699 6.5641 85.3218 6.67456C85.4737 6.78501 85.6581 6.88494 85.8751 6.97436C86.0921 7.06377 86.339 7.16108 86.6157 7.26627C86.9846 7.40302 87.3155 7.54504 87.6085 7.69231C87.9014 7.83432 88.151 7.99737 88.3571 8.18146C88.5633 8.36029 88.7206 8.56805 88.8291 8.80473C88.943 9.04142 89 9.32281 89 9.64892C89 10.0487 88.9078 10.3958 88.7233 10.6903C88.5443 10.9849 88.3029 11.2295 87.9991 11.4241C87.6953 11.6187 87.3453 11.7633 86.9493 11.858C86.5533 11.9527 86.1382 12 85.7042 12C84.8471 12 84.1038 11.8396 83.4745 11.5187Z" fill="white"/>
<g opacity="0.5">
<path d="M559.68 11.8442H555V2.53247H556.057V10.8571H559.68V11.8442Z" fill="white"/>
<path d="M565.537 11.8442H564.505V10.8052H564.48C564.031 11.6017 563.371 12 562.499 12C561.857 12 561.354 11.8247 560.989 11.474C560.628 11.1234 560.448 10.658 560.448 10.0779C560.448 8.8355 561.157 8.11255 562.574 7.90909L564.505 7.62987C564.505 6.5 564.063 5.93507 563.178 5.93507C562.402 5.93507 561.702 6.20779 561.077 6.75325V5.66234C561.71 5.24675 562.44 5.03896 563.266 5.03896C564.78 5.03896 565.537 5.8658 565.537 7.51948V11.8442ZM564.505 8.48052L562.952 8.7013C562.473 8.77056 562.113 8.89394 561.87 9.07143C561.626 9.24459 561.505 9.55411 561.505 10C561.505 10.3247 561.616 10.5909 561.838 10.7987C562.065 11.0022 562.364 11.1039 562.738 11.1039C563.249 11.1039 563.671 10.9199 564.002 10.5519C564.338 10.1797 564.505 9.70996 564.505 9.14286V8.48052Z" fill="white"/>
<path d="M567.091 11.6039V10.461C567.653 10.8896 568.271 11.1039 568.947 11.1039C569.853 11.1039 570.305 10.7922 570.305 10.1688C570.305 9.99134 570.266 9.84199 570.186 9.72078C570.11 9.59524 570.006 9.48485 569.871 9.38961C569.741 9.29437 569.586 9.20996 569.406 9.13636C569.23 9.05844 569.039 8.97835 568.833 8.8961C568.548 8.77922 568.297 8.66234 568.079 8.54545C567.865 8.42424 567.684 8.29004 567.538 8.14286C567.395 7.99134 567.286 7.82035 567.21 7.62987C567.139 7.43939 567.103 7.21645 567.103 6.96104C567.103 6.64935 567.173 6.37446 567.311 6.13636C567.449 5.89394 567.634 5.69264 567.865 5.53247C568.095 5.36797 568.357 5.24459 568.651 5.16234C568.949 5.08009 569.255 5.03896 569.569 5.03896C570.127 5.03896 570.626 5.13853 571.067 5.33766V6.41558C570.593 6.09524 570.048 5.93507 569.431 5.93507C569.238 5.93507 569.064 5.95887 568.909 6.00649C568.754 6.04978 568.62 6.11255 568.506 6.19481C568.397 6.27706 568.311 6.37662 568.248 6.49351C568.19 6.60606 568.16 6.7316 568.16 6.87013C568.16 7.04329 568.19 7.18831 568.248 7.30519C568.311 7.42208 568.401 7.52597 568.519 7.61688C568.636 7.70779 568.779 7.79004 568.947 7.86364C569.114 7.93723 569.305 8.01732 569.519 8.1039C569.804 8.21645 570.06 8.33333 570.287 8.45455C570.513 8.57143 570.706 8.70563 570.865 8.85714C571.025 9.00433 571.146 9.17532 571.23 9.37013C571.318 9.56494 571.362 9.79654 571.362 10.0649C571.362 10.3939 571.291 10.6797 571.148 10.9221C571.01 11.1645 570.823 11.3658 570.589 11.526C570.354 11.6861 570.083 11.8052 569.777 11.8831C569.471 11.961 569.15 12 568.815 12C568.152 12 567.577 11.868 567.091 11.6039Z" fill="white"/>
<path d="M575.942 11.7792C575.699 11.9177 575.378 11.987 574.979 11.987C573.851 11.987 573.287 11.3377 573.287 10.039V6.1039H572.18V5.19481H573.287V3.57143L574.319 3.22727V5.19481H575.942V6.1039H574.319V9.85065C574.319 10.2965 574.392 10.6147 574.539 10.8052C574.686 10.9957 574.929 11.0909 575.269 11.0909C575.529 11.0909 575.753 11.0173 575.942 10.8701V11.7792Z" fill="white"/>
<path d="M588.97 5.19481L587.039 11.8442H585.969L584.642 7.08442C584.592 6.9026 584.558 6.69697 584.541 6.46753H584.516C584.504 6.62338 584.46 6.82468 584.384 7.07143L582.944 11.8442H581.912L579.962 5.19481H581.044L582.377 10.1948C582.419 10.3463 582.449 10.5455 582.466 10.7922H582.516C582.528 10.6017 582.566 10.3983 582.629 10.1818L584.114 5.19481H585.057L586.391 10.2078C586.433 10.368 586.464 10.5671 586.485 10.8052H586.536C586.544 10.6364 586.58 10.4372 586.643 10.2078L587.951 5.19481H588.97Z" fill="white"/>
<path d="M595.343 8.78571H590.795C590.811 9.52597 591.004 10.0974 591.373 10.5C591.742 10.9026 592.25 11.1039 592.896 11.1039C593.621 11.1039 594.288 10.8571 594.896 10.3636V11.3636C594.33 11.7879 593.581 12 592.65 12C591.74 12 591.025 11.6991 590.505 11.0974C589.985 10.4913 589.725 9.64069 589.725 8.54545C589.725 7.51082 590.008 6.66883 590.574 6.01948C591.145 5.3658 591.851 5.03896 592.694 5.03896C593.537 5.03896 594.189 5.32035 594.651 5.88312C595.112 6.44589 595.343 7.22727 595.343 8.22727V8.78571ZM594.286 7.88312C594.282 7.2684 594.137 6.79004 593.852 6.44805C593.571 6.10606 593.179 5.93507 592.675 5.93507C592.189 5.93507 591.776 6.11472 591.436 6.47403C591.096 6.83333 590.887 7.30303 590.807 7.88312H594.286Z" fill="white"/>
<path d="M602.086 8.78571H597.538C597.555 9.52597 597.748 10.0974 598.117 10.5C598.486 10.9026 598.993 11.1039 599.639 11.1039C600.365 11.1039 601.032 10.8571 601.64 10.3636V11.3636C601.074 11.7879 600.325 12 599.394 12C598.484 12 597.769 11.6991 597.249 11.0974C596.729 10.4913 596.469 9.64069 596.469 8.54545C596.469 7.51082 596.752 6.66883 597.318 6.01948C597.888 5.3658 598.595 5.03896 599.438 5.03896C600.281 5.03896 600.933 5.32035 601.394 5.88312C601.856 6.44589 602.086 7.22727 602.086 8.22727V8.78571ZM601.03 7.88312C601.025 7.2684 600.881 6.79004 600.596 6.44805C600.315 6.10606 599.922 5.93507 599.419 5.93507C598.933 5.93507 598.52 6.11472 598.18 6.47403C597.84 6.83333 597.63 7.30303 597.551 7.88312H601.03Z" fill="white"/>
<path d="M609 11.8442H607.553L604.71 8.64935H604.685V11.8442H603.653V2H604.685V8.24026H604.71L607.415 5.19481H608.767L605.779 8.4026L609 11.8442Z" fill="white"/>
</g>
<path d="M4.52981 422.674H3.39416L0 414.048H1.20582L3.94285 421.365H3.98113L6.71815 414.048H7.92397L4.52981 422.674Z" fill="#F3F8FE"/>
<path d="M8.67043 422.674V416.457H9.78055V422.674H8.67043ZM9.22549 415.351C9.03409 415.351 8.87034 415.287 8.73423 415.16C8.59813 415.032 8.53007 414.879 8.53007 414.699C8.53007 414.516 8.59813 414.363 8.73423 414.239C8.87034 414.112 9.03409 414.048 9.22549 414.048C9.42115 414.048 9.5849 414.112 9.71675 414.239C9.85286 414.363 9.92091 414.516 9.92091 414.699C9.92091 414.879 9.85286 415.032 9.71675 415.16C9.5849 415.287 9.42115 415.351 9.22549 415.351Z" fill="#F3F8FE"/>
<path d="M15.6821 420.893H16.773C16.7092 421.256 16.5497 421.58 16.2945 421.867C16.0436 422.15 15.7203 422.374 15.3248 422.537C14.9335 422.7 14.4954 422.782 14.0105 422.782C13.062 422.782 12.3155 422.495 11.7711 421.921C11.2267 421.343 10.9545 420.566 10.9545 419.59C10.9545 418.944 11.0778 418.378 11.3245 417.892C11.5712 417.406 11.92 417.027 12.3708 416.756C12.8217 416.485 13.3512 416.349 13.9595 416.349C14.5592 416.349 15.0738 416.477 15.5034 416.732C15.9373 416.987 16.2712 417.348 16.5051 417.814C16.739 418.276 16.856 418.822 16.856 419.452V419.847H12.0965V419.907C12.0965 420.5 12.2709 420.979 12.6197 421.341C12.9684 421.7 13.4406 421.879 14.036 421.879C14.4571 421.879 14.8123 421.788 15.1015 421.604C15.395 421.421 15.5885 421.184 15.6821 420.893ZM13.9403 417.252C13.4214 417.252 12.994 417.42 12.6579 417.754C12.3219 418.089 12.1369 418.516 12.1029 419.034H15.7076C15.6948 418.512 15.5268 418.085 15.2036 417.754C14.8846 417.42 14.4635 417.252 13.9403 417.252Z" fill="#F3F8FE"/>
<path d="M26.4196 416.457L24.5694 422.674H23.4402L21.9409 417.862H21.9153L20.4224 422.674H19.2931L17.4366 416.457H18.5403L19.8673 421.515H19.8929L21.3922 416.457H22.464L23.9697 421.515H23.9952L25.3223 416.457H26.4196Z" fill="#F3F8FE"/>
<path d="M30.3688 422.674V417.312H29.4437V416.457H30.3688V415.764C30.3688 414.588 30.9749 414 32.1871 414C32.3105 414 32.4338 414.006 32.5572 414.018C32.6805 414.026 32.7826 414.036 32.8634 414.048V414.891C32.7954 414.883 32.7167 414.875 32.6274 414.867C32.5423 414.859 32.453 414.855 32.3594 414.855C31.7682 414.855 31.4726 415.16 31.4726 415.77V416.457H32.8315V417.312H31.479V422.674H30.3688Z" fill="#F3F8FE"/>
<path d="M39.4285 416.457V422.674H38.3758V421.664H38.3502C38.1546 422.023 37.8824 422.3 37.5336 422.495C37.1848 422.686 36.7552 422.782 36.2448 422.782C35.5218 422.782 34.9582 422.577 34.5541 422.166C34.1501 421.756 33.948 421.198 33.948 420.492V416.457H35.0582V420.307C35.0582 421.343 35.5686 421.861 36.5894 421.861C37.1295 421.861 37.5527 421.702 37.859 421.383C38.1652 421.064 38.3183 420.64 38.3183 420.11V416.457H39.4285Z" fill="#F3F8FE"/>
<path d="M40.9278 422.674V414.048H42.0379V422.674H40.9278Z" fill="#F3F8FE"/>
<path d="M43.5946 422.674V414.048H44.7047V422.674H43.5946Z" fill="#F3F8FE"/>
<path d="M50.8232 422.782C50.1639 422.782 49.6301 422.611 49.2218 422.268C48.8177 421.925 48.6157 421.475 48.6157 420.917C48.6157 420.383 48.8241 419.956 49.2409 419.638C49.662 419.319 50.2553 419.139 51.0209 419.099L52.9222 418.998V418.478C52.9222 418.099 52.7946 417.802 52.5394 417.587C52.2842 417.372 51.9269 417.264 51.4675 417.264C51.0422 417.264 50.6977 417.352 50.434 417.527C50.1745 417.703 50.0086 417.944 49.9363 418.251H48.8645C48.9028 417.713 49.1537 417.262 49.6173 416.899C50.0852 416.533 50.7104 416.349 51.4931 416.349C52.2714 416.349 52.8881 416.533 53.3433 416.899C53.8026 417.266 54.0323 417.758 54.0323 418.376V422.674H52.9796V421.604H52.9541C52.7584 421.959 52.4649 422.244 52.0736 422.459C51.6866 422.674 51.2698 422.782 50.8232 422.782ZM51.072 421.897C51.4207 421.897 51.7334 421.828 52.0098 421.688C52.2906 421.549 52.5117 421.359 52.6734 421.12C52.8392 420.881 52.9222 420.612 52.9222 420.313V419.805L51.1485 419.907C50.7019 419.934 50.3553 420.036 50.1086 420.211C49.8661 420.387 49.7449 420.622 49.7449 420.917C49.7449 421.212 49.8661 421.449 50.1086 421.628C50.351 421.808 50.6722 421.897 51.072 421.897Z" fill="#F3F8FE"/>
<path d="M55.4423 422.674V416.457H56.4886V417.449H56.5141C56.7013 417.115 56.9692 416.848 57.318 416.648C57.671 416.449 58.1049 416.349 58.6195 416.349C59.3468 416.349 59.9104 416.555 60.3102 416.965C60.7143 417.376 60.9163 417.934 60.9163 418.639V422.674H59.8062V418.824C59.8062 418.322 59.6786 417.938 59.4234 417.671C59.1725 417.404 58.7918 417.27 58.2814 417.27C57.7582 417.27 57.3393 417.43 57.0245 417.748C56.7098 418.067 56.5524 418.49 56.5524 419.016V422.674H55.4423Z" fill="#F3F8FE"/>
<path d="M64.2722 422.782C63.6129 422.782 63.0792 422.611 62.6708 422.268C62.2668 421.925 62.0647 421.475 62.0647 420.917C62.0647 420.383 62.2731 419.956 62.69 419.638C63.111 419.319 63.7044 419.139 64.47 419.099L66.3712 418.998V418.478C66.3712 418.099 66.2436 417.802 65.9884 417.587C65.7332 417.372 65.376 417.264 64.9166 417.264C64.4913 417.264 64.1467 417.352 63.883 417.527C63.6236 417.703 63.4577 417.944 63.3854 418.251H62.3135C62.3518 417.713 62.6028 417.262 63.0664 416.899C63.5343 416.533 64.1595 416.349 64.9421 416.349C65.7205 416.349 66.3372 416.533 66.7923 416.899C67.2517 417.266 67.4814 417.758 67.4814 418.376V422.674H66.4287V421.604H66.4031C66.2075 421.959 65.914 422.244 65.5227 422.459C65.1356 422.674 64.7188 422.782 64.2722 422.782ZM64.521 421.897C64.8698 421.897 65.1824 421.828 65.4589 421.688C65.7396 421.549 65.9608 421.359 66.1224 421.12C66.2883 420.881 66.3712 420.612 66.3712 420.313V419.805L64.5976 419.907C64.151 419.934 63.8043 420.036 63.5577 420.211C63.3152 420.387 63.194 420.622 63.194 420.917C63.194 421.212 63.3152 421.449 63.5577 421.628C63.8001 421.808 64.1212 421.897 64.521 421.897Z" fill="#F3F8FE"/>
<path d="M68.9488 422.674V414.048H70.0589V422.674H68.9488Z" fill="#F3F8FE"/>
<path d="M72.1132 425C72.0452 425 71.9622 424.996 71.8644 424.988C71.7709 424.984 71.6943 424.976 71.6347 424.964V424.091C71.6943 424.103 71.7645 424.111 71.8453 424.115C71.9261 424.119 72.0005 424.121 72.0686 424.121C72.3791 424.121 72.6279 424.043 72.815 423.888C73.0022 423.737 73.1596 423.48 73.2872 423.117L73.4403 422.68L70.9904 416.457H72.177L74.0145 421.634H74.0336L75.8711 416.457H77.0386L74.4292 423.111C74.242 423.593 74.0464 423.972 73.8422 424.247C73.6381 424.522 73.3978 424.715 73.1213 424.827C72.8491 424.942 72.5131 425 72.1132 425Z" fill="#F3F8FE"/>
<path d="M78.27 414.957H79.3801V416.457H80.6688V417.312H79.3801V421.007C79.3801 421.557 79.6544 421.832 80.2031 421.832C80.2669 421.832 80.3498 421.828 80.4519 421.82C80.554 421.812 80.6242 421.806 80.6625 421.802V422.674C80.5944 422.69 80.4923 422.702 80.3562 422.71C80.2244 422.718 80.0925 422.722 79.9607 422.722C79.3524 422.722 78.9186 422.595 78.6591 422.34C78.3997 422.085 78.27 421.658 78.27 421.06V417.312H77.2811V416.457H78.27V414.957Z" fill="#F3F8FE"/>
<path d="M81.9129 422.674V416.457H83.0231V422.674H81.9129ZM82.468 415.351C82.2766 415.351 82.1128 415.287 81.9767 415.16C81.8406 415.032 81.7726 414.879 81.7726 414.699C81.7726 414.516 81.8406 414.363 81.9767 414.239C82.1128 414.112 82.2766 414.048 82.468 414.048C82.6637 414.048 82.8274 414.112 82.9593 414.239C83.0954 414.363 83.1634 414.516 83.1634 414.699C83.1634 414.879 83.0954 415.032 82.9593 415.16C82.8274 415.287 82.6637 415.351 82.468 415.351Z" fill="#F3F8FE"/>
<path d="M90.0347 418.496H88.9501C88.8693 418.157 88.6885 417.868 88.4078 417.629C88.1271 417.386 87.7421 417.264 87.253 417.264C86.6788 417.264 86.2131 417.471 85.8558 417.886C85.5028 418.3 85.3262 418.86 85.3262 419.566C85.3262 420.287 85.5049 420.851 85.8622 421.258C86.2237 421.664 86.6916 421.867 87.2658 421.867C87.7209 421.867 88.093 421.762 88.3823 421.551C88.6715 421.339 88.8629 421.046 88.9565 420.672H90.0474C89.9922 421.082 89.839 421.447 89.5881 421.766C89.3371 422.085 89.0118 422.334 88.6119 422.513C88.2121 422.692 87.7613 422.782 87.2594 422.782C86.6469 422.782 86.111 422.655 85.6516 422.399C85.1923 422.14 84.835 421.77 84.5798 421.288C84.3246 420.805 84.197 420.231 84.197 419.566C84.197 418.912 84.3225 418.344 84.5734 417.862C84.8286 417.38 85.1859 417.007 85.6452 416.744C86.1046 416.481 86.6384 416.349 87.2466 416.349C87.7996 416.349 88.2759 416.451 88.6757 416.654C89.0756 416.858 89.3903 417.123 89.62 417.449C89.8497 417.772 89.9879 418.121 90.0347 418.496Z" fill="#F3F8FE"/>
<path d="M90.9534 418.173C90.9534 417.818 91.0555 417.503 91.2597 417.228C91.4681 416.953 91.7552 416.738 92.1209 416.583C92.491 416.427 92.9142 416.349 93.3906 416.349C94.1179 416.349 94.7049 416.529 95.1515 416.888C95.6023 417.246 95.8384 417.701 95.8596 418.251H94.8006C94.758 417.924 94.6134 417.667 94.3667 417.479C94.1243 417.292 93.7989 417.198 93.3906 417.198C92.9865 417.198 92.6611 417.284 92.4144 417.455C92.1677 417.627 92.0444 417.848 92.0444 418.119C92.0444 418.549 92.4038 418.846 93.1226 419.01L94.1753 419.249C94.8473 419.4 95.3195 419.608 95.5917 419.871C95.8639 420.134 96 420.488 96 420.935C96 421.293 95.8873 421.612 95.6619 421.891C95.4407 422.17 95.1366 422.389 94.7495 422.549C94.3625 422.704 93.9222 422.782 93.4289 422.782C92.6505 422.782 92.0295 422.611 91.5659 422.268C91.1023 421.925 90.8386 421.463 90.7748 420.881H91.8849C92.0167 421.582 92.5314 421.933 93.4289 421.933C93.8797 421.933 94.2349 421.849 94.4943 421.682C94.7538 421.515 94.8835 421.291 94.8835 421.013C94.8835 420.789 94.8069 420.61 94.6538 420.474C94.505 420.335 94.2412 420.221 93.8627 420.134L92.81 419.895C91.5723 419.616 90.9534 419.042 90.9534 418.173Z" fill="#F3F8FE"/>
<path d="M605.322 418.5C605.328 418.829 605.27 419.156 605.154 419.461C605.038 419.765 604.864 420.041 604.645 420.271C604.432 420.507 604.176 420.693 603.893 420.819C603.61 420.944 603.306 421.006 603 421C602.694 421.006 602.39 420.944 602.107 420.819C601.824 420.693 601.568 420.507 601.355 420.271C601.136 420.041 600.962 419.765 600.846 419.461C600.73 419.156 600.672 418.829 600.678 418.5C600.672 418.171 600.73 417.844 600.846 417.539C600.962 417.235 601.136 416.959 601.355 416.729C601.568 416.493 601.824 416.307 602.107 416.181C602.39 416.056 602.694 415.994 603 416C603.306 415.994 603.61 416.056 603.893 416.181C604.176 416.307 604.432 416.493 604.645 416.729C604.864 416.959 605.038 417.235 605.154 417.539C605.27 417.844 605.328 418.171 605.322 418.5ZM608.677 416C608.982 415.994 609.286 416.056 609.569 416.181C609.852 416.307 610.108 416.493 610.322 416.729C610.541 416.959 610.714 417.234 610.831 417.539C610.948 417.844 611.005 418.171 611 418.5C611.005 418.829 610.948 419.156 610.831 419.461C610.714 419.766 610.541 420.041 610.322 420.271C610.108 420.507 609.852 420.693 609.569 420.819C609.286 420.944 608.982 421.006 608.677 421C608.371 421.006 608.067 420.944 607.784 420.819C607.501 420.693 607.245 420.507 607.031 420.271C606.812 420.041 606.639 419.765 606.523 419.461C606.406 419.156 606.349 418.829 606.354 418.5C606.349 418.171 606.406 417.844 606.523 417.539C606.639 417.235 606.812 416.959 607.031 416.729C607.245 416.493 607.501 416.307 607.784 416.181C608.067 416.056 608.371 415.994 608.677 416ZM597.323 416C597.628 415.994 597.932 416.056 598.215 416.181C598.498 416.307 598.754 416.493 598.968 416.729C599.187 416.959 599.36 417.235 599.477 417.539C599.593 417.844 599.65 418.171 599.645 418.5C599.65 418.829 599.593 419.156 599.477 419.461C599.36 419.765 599.187 420.041 598.968 420.271C598.754 420.507 598.498 420.693 598.215 420.819C597.932 420.944 597.628 421.006 597.323 421C597.017 421.006 596.713 420.944 596.43 420.819C596.147 420.693 595.891 420.507 595.677 420.271C595.458 420.041 595.285 419.765 595.169 419.461C595.052 419.156 594.995 418.829 595 418.5C594.995 418.171 595.052 417.844 595.169 417.539C595.285 417.235 595.458 416.959 595.677 416.729C595.891 416.493 596.147 416.307 596.43 416.181C596.713 416.056 597.017 415.994 597.323 416Z" fill="#0093EE"/>
<path d="M38 207H609V208H38" fill="#E7E9ED"/>
<path opacity="0.302" d="M609 77H38V78H609V77Z" fill="#C5D0DE"/>
<path opacity="0.302" d="M609 294H38V295H609V294Z" fill="#C5D0DE"/>
<path opacity="0.302" d="M609 250H38V251H609V250Z" fill="#C5D0DE"/>
<path opacity="0.302" d="M609 338H38V339H609V338Z" fill="#C5D0DE"/>
<path opacity="0.302" d="M609 120H38V121H609V120Z" fill="#C5D0DE"/>
<path opacity="0.302" d="M609 163H38V164H609V163Z" fill="#C5D0DE"/>
<path d="M55.0008 365.634L55.9618 365.505C55.9874 366.106 56.1027 366.517 56.3077 366.739C56.5128 366.961 56.7965 367.072 57.1589 367.072C57.4261 367.072 57.6568 367.013 57.8508 366.895C58.0448 366.773 58.1784 366.61 58.2517 366.406C58.3249 366.199 58.3615 365.87 58.3615 365.419V360H59.4268V365.36C59.4268 366.018 59.3444 366.528 59.1797 366.889C59.0186 367.251 58.7605 367.526 58.4054 367.716C58.054 367.905 57.6403 368 57.1644 368C56.4578 368 55.916 367.801 55.539 367.404C55.1656 367.007 54.9862 366.417 55.0008 365.634Z" fill="#ADAFB2"/>
<path d="M60.2834 367.866L63.375 360H64.5227L67.8174 367.866H66.6039L65.6649 365.484H62.2987L61.4146 367.866H60.2834ZM62.6062 364.636H65.3354L64.4952 362.457C64.239 361.796 64.0486 361.252 63.9241 360.826C63.8216 361.331 63.677 361.831 63.4903 362.329L62.6062 364.636Z" fill="#ADAFB2"/>
<path d="M68.6576 367.866V360H69.7504L73.9786 366.176V360H75V367.866H73.9072L69.679 361.685V367.866H68.6576Z" fill="#ADAFB2"/>
<path d="M118 368V360H123.336V360.944H119.047V363.422H122.759V364.366H119.047V368H118Z" fill="#ADAFB2"/>
<path d="M124.722 368V360H130.441V360.944H125.769V363.394H130.145V364.333H125.769V367.056H130.625V368H124.722Z" fill="#ADAFB2"/>
<path d="M132.028 368V360H134.995C135.599 360 136.083 360.082 136.446 360.246C136.813 360.406 137.099 360.655 137.304 360.993C137.513 361.328 137.617 361.679 137.617 362.046C137.617 362.388 137.525 362.71 137.342 363.012C137.158 363.314 136.881 363.558 136.511 363.744C136.989 363.885 137.356 364.127 137.612 364.469C137.871 364.811 138 365.215 138 365.681C138 366.055 137.921 366.405 137.763 366.729C137.608 367.049 137.416 367.296 137.185 367.471C136.955 367.645 136.666 367.778 136.317 367.869C135.971 367.956 135.547 368 135.043 368H132.028ZM133.074 363.362H134.784C135.248 363.362 135.581 363.331 135.783 363.269C136.049 363.189 136.248 363.056 136.381 362.87C136.518 362.685 136.586 362.452 136.586 362.172C136.586 361.906 136.524 361.673 136.398 361.473C136.272 361.27 136.092 361.131 135.858 361.059C135.624 360.982 135.223 360.944 134.655 360.944H133.074V363.362ZM133.074 367.056H135.043C135.382 367.056 135.619 367.043 135.756 367.018C135.997 366.974 136.198 366.901 136.36 366.799C136.522 366.698 136.655 366.55 136.759 366.357C136.863 366.161 136.916 365.935 136.916 365.681C136.916 365.382 136.84 365.124 136.689 364.906C136.538 364.684 136.327 364.529 136.058 364.442C135.792 364.351 135.407 364.306 134.903 364.306H133.074V367.056Z" fill="#ADAFB2"/>
<path d="M181 368V360H182.669L184.653 365.664C184.836 366.192 184.969 366.587 185.053 366.849C185.149 366.558 185.297 366.13 185.499 365.566L187.506 360H188.998V368H187.929V361.304L185.493 368H184.493L182.069 361.19V368H181Z" fill="#ADAFB2"/>
<path d="M189.867 368L193.086 360H194.28L197.71 368H196.447L195.469 365.577H191.965L191.045 368H189.867ZM192.285 364.715H195.126L194.252 362.499C193.985 361.826 193.787 361.273 193.657 360.84C193.55 361.353 193.4 361.863 193.206 362.368L192.285 364.715Z" fill="#ADAFB2"/>
<path d="M198.614 368V360H202.33C203.077 360 203.645 360.073 204.033 360.218C204.422 360.36 204.733 360.613 204.965 360.977C205.198 361.341 205.314 361.743 205.314 362.183C205.314 362.75 205.122 363.229 204.737 363.618C204.352 364.007 203.757 364.255 202.953 364.36C203.246 364.495 203.469 364.628 203.622 364.759C203.946 365.042 204.253 365.397 204.542 365.823L206 368H204.605L203.496 366.336C203.172 365.855 202.905 365.488 202.696 365.233C202.486 364.979 202.297 364.8 202.13 364.698C201.966 364.597 201.798 364.526 201.627 364.486C201.501 364.46 201.295 364.447 201.009 364.447H199.723V368H198.614ZM199.723 363.531H202.107C202.614 363.531 203.01 363.482 203.296 363.383C203.582 363.281 203.799 363.121 203.948 362.903C204.096 362.681 204.171 362.441 204.171 362.183C204.171 361.804 204.026 361.493 203.736 361.25C203.45 361.006 202.997 360.884 202.375 360.884H199.723V363.531Z" fill="#ADAFB2"/>
<path d="M247 368L249.957 360H251.055L254.207 368H253.046L252.148 365.577H248.928L248.082 368H247ZM249.222 364.715H251.833L251.029 362.499C250.784 361.826 250.602 361.273 250.483 360.84C250.385 361.353 250.246 361.863 250.068 362.368L249.222 364.715Z" fill="#ADAFB2"/>
<path d="M255.021 368V360H257.926C258.438 360 258.828 360.025 259.098 360.076C259.476 360.142 259.793 360.267 260.049 360.453C260.304 360.635 260.509 360.891 260.663 361.222C260.821 361.553 260.9 361.917 260.9 362.314C260.9 362.994 260.691 363.571 260.275 364.044C259.858 364.513 259.105 364.748 258.016 364.748H256.041V368H255.021ZM256.041 363.804H258.032C258.69 363.804 259.157 363.676 259.434 363.422C259.711 363.167 259.849 362.809 259.849 362.347C259.849 362.012 259.767 361.726 259.602 361.49C259.441 361.25 259.227 361.091 258.961 361.015C258.79 360.968 258.473 360.944 258.011 360.944H256.041V363.804Z" fill="#ADAFB2"/>
<path d="M262.213 368V360H265.628C266.314 360 266.836 360.073 267.193 360.218C267.55 360.36 267.836 360.613 268.049 360.977C268.263 361.341 268.37 361.743 268.37 362.183C268.37 362.75 268.193 363.229 267.839 363.618C267.485 364.007 266.939 364.255 266.2 364.36C266.47 364.495 266.675 364.628 266.815 364.759C267.112 365.042 267.394 365.397 267.66 365.823L269 368H267.718L266.699 366.336C266.401 365.855 266.156 365.488 265.964 365.233C265.771 364.979 265.598 364.8 265.444 364.698C265.293 364.597 265.139 364.526 264.981 364.486C264.866 364.46 264.677 364.447 264.414 364.447H263.232V368H262.213ZM263.232 363.531H265.423C265.888 363.531 266.253 363.482 266.515 363.383C266.778 363.281 266.978 363.121 267.114 362.903C267.251 362.681 267.319 362.441 267.319 362.183C267.319 361.804 267.186 361.493 266.92 361.25C266.657 361.006 266.24 360.884 265.67 360.884H263.232V363.531Z" fill="#ADAFB2"/>
<path d="M311 368V360H312.56L314.414 365.664C314.585 366.192 314.709 366.587 314.788 366.849C314.877 366.558 315.016 366.13 315.204 365.566L317.08 360H318.474V368H317.475V361.304L315.199 368H314.264L311.999 361.19V368H311Z" fill="#ADAFB2"/>
<path d="M319.286 368L322.294 360H323.41L326.616 368H325.435L324.522 365.577H321.247L320.387 368H319.286ZM321.546 364.715H324.201L323.384 362.499C323.134 361.826 322.949 361.273 322.828 360.84C322.728 361.353 322.588 361.863 322.406 362.368L321.546 364.715Z" fill="#ADAFB2"/>
<path d="M328.838 368V364.611L325.82 360H327.081L328.625 362.412C328.91 362.863 329.175 363.314 329.421 363.765C329.656 363.347 329.941 362.876 330.275 362.352L331.793 360H333L329.875 364.611V368H328.838Z" fill="#ADAFB2"/>
<path d="M441.001 365.634L441.948 365.505C441.973 366.106 442.087 366.517 442.289 366.739C442.491 366.961 442.77 367.072 443.127 367.072C443.391 367.072 443.618 367.013 443.809 366.895C444 366.773 444.132 366.61 444.204 366.406C444.276 366.199 444.313 365.87 444.313 365.419V360H445.362V365.36C445.362 366.018 445.281 366.528 445.119 366.889C444.96 367.251 444.706 367.526 444.356 367.716C444.01 367.905 443.602 368 443.133 368C442.437 368 441.903 367.801 441.531 367.404C441.163 367.007 440.986 366.417 441.001 365.634Z" fill="#ADAFB2"/>
<path d="M452.283 360H453.333V364.545C453.333 365.335 453.243 365.963 453.063 366.428C452.882 366.893 452.556 367.272 452.083 367.565C451.614 367.855 450.997 368 450.233 368C449.489 368 448.882 367.873 448.409 367.619C447.936 367.365 447.599 366.998 447.397 366.519C447.195 366.036 447.094 365.378 447.094 364.545V360H448.144V364.539C448.144 365.222 448.207 365.727 448.333 366.052C448.463 366.374 448.683 366.623 448.993 366.798C449.307 366.973 449.69 367.061 450.141 367.061C450.913 367.061 451.463 366.888 451.791 366.541C452.119 366.194 452.283 365.526 452.283 364.539V360Z" fill="#ADAFB2"/>
<path d="M455.043 367.866V360H456.093V366.938H460V367.866H455.043Z" fill="#ADAFB2"/>
<path d="M377.001 365.634L377.979 365.505C378.005 366.106 378.123 366.517 378.331 366.739C378.54 366.961 378.829 367.072 379.198 367.072C379.47 367.072 379.705 367.013 379.902 366.895C380.1 366.773 380.236 366.61 380.311 366.406C380.385 366.199 380.422 365.87 380.422 365.419V360H381.507V365.36C381.507 366.018 381.423 366.528 381.255 366.889C381.091 367.251 380.829 367.526 380.467 367.716C380.109 367.905 379.688 368 379.204 368C378.484 368 377.933 367.801 377.549 367.404C377.169 367.007 376.986 366.417 377.001 365.634Z" fill="#ADAFB2"/>
<path d="M388.658 360H389.742V364.545C389.742 365.335 389.649 365.963 389.463 366.428C389.276 366.893 388.939 367.272 388.451 367.565C387.966 367.855 387.329 368 386.539 368C385.771 368 385.143 367.873 384.655 367.619C384.166 367.365 383.818 366.998 383.609 366.519C383.4 366.036 383.296 365.378 383.296 364.545V360H384.381V364.539C384.381 365.222 384.446 365.727 384.576 366.052C384.711 366.374 384.938 366.623 385.258 366.798C385.583 366.973 385.978 367.061 386.444 367.061C387.241 367.061 387.81 366.888 388.149 366.541C388.488 366.194 388.658 365.526 388.658 364.539V360Z" fill="#ADAFB2"/>
<path d="M391.543 367.866V360H392.655L396.96 366.176V360H398V367.866H396.887L392.582 361.685V367.866H391.543Z" fill="#ADAFB2"/>
<path d="M502 367.868L505.002 360.132H506.116L509.315 367.868H508.137L507.225 365.525H503.957L503.098 367.868H502ZM504.255 364.691H506.905L506.089 362.549C505.84 361.898 505.656 361.363 505.535 360.945C505.435 361.441 505.295 361.933 505.114 362.422L504.255 364.691Z" fill="#ADAFB2"/>
<path d="M515.27 360.132H516.304V364.602C516.304 365.379 516.215 365.996 516.038 366.454C515.86 366.911 515.538 367.284 515.073 367.573C514.611 367.858 514.003 368 513.249 368C512.517 368 511.918 367.875 511.453 367.625C510.987 367.376 510.655 367.015 510.456 366.544C510.257 366.069 510.157 365.421 510.157 364.602V360.132H511.191V364.596C511.191 365.268 511.254 365.764 511.378 366.084C511.506 366.401 511.723 366.646 512.029 366.818C512.338 366.99 512.714 367.077 513.159 367.077C513.919 367.077 514.461 366.906 514.785 366.565C515.108 366.223 515.27 365.567 515.27 364.596V360.132Z" fill="#ADAFB2"/>
<path d="M521.689 364.834V363.926L525 363.921V366.792C524.492 367.193 523.967 367.495 523.427 367.699C522.887 367.9 522.332 368 521.764 368C520.996 368 520.298 367.838 519.669 367.515C519.043 367.187 518.57 366.716 518.25 366.1C517.93 365.485 517.771 364.797 517.771 364.037C517.771 363.284 517.929 362.582 518.245 361.931C518.565 361.277 519.023 360.792 519.621 360.475C520.218 360.158 520.905 360 521.684 360C522.249 360 522.759 360.091 523.214 360.274C523.672 360.454 524.031 360.705 524.291 361.029C524.55 361.353 524.748 361.775 524.883 362.296L523.95 362.549C523.832 362.155 523.687 361.845 523.513 361.62C523.338 361.395 523.09 361.215 522.766 361.082C522.443 360.945 522.084 360.876 521.689 360.876C521.216 360.876 520.808 360.948 520.463 361.092C520.118 361.233 519.839 361.42 519.626 361.652C519.416 361.884 519.253 362.139 519.135 362.417C518.936 362.895 518.837 363.414 518.837 363.974C518.837 364.663 518.956 365.24 519.194 365.704C519.436 366.169 519.786 366.514 520.244 366.739C520.703 366.964 521.19 367.077 521.705 367.077C522.153 367.077 522.59 366.992 523.017 366.823C523.443 366.651 523.767 366.468 523.987 366.274V364.834H521.689Z" fill="#ADAFB2"/>
<path d="M568 365.383L569.028 365.298C569.077 365.685 569.189 366.004 569.365 366.253C569.545 366.5 569.822 366.7 570.196 366.855C570.571 367.006 570.992 367.082 571.46 367.082C571.875 367.082 572.242 367.024 572.561 366.908C572.879 366.792 573.115 366.633 573.268 366.433C573.426 366.229 573.504 366.007 573.504 365.768C573.504 365.525 573.429 365.314 573.28 365.135C573.13 364.952 572.883 364.799 572.538 364.675C572.317 364.595 571.829 364.47 571.072 364.301C570.316 364.128 569.786 363.967 569.483 363.815C569.09 363.622 568.796 363.383 568.601 363.098C568.41 362.809 568.315 362.487 568.315 362.132C568.315 361.741 568.432 361.377 568.668 361.04C568.904 360.698 569.249 360.44 569.702 360.264C570.155 360.088 570.658 360 571.213 360C571.823 360 572.36 360.093 572.825 360.28C573.293 360.463 573.652 360.734 573.903 361.092C574.154 361.451 574.289 361.858 574.307 362.311L573.263 362.385C573.207 361.896 573.016 361.527 572.69 361.277C572.368 361.027 571.89 360.902 571.258 360.902C570.599 360.902 570.117 361.017 569.814 361.245C569.515 361.471 569.365 361.743 569.365 362.063C569.365 362.341 569.472 362.57 569.685 362.749C569.895 362.929 570.441 363.113 571.325 363.303C572.212 363.49 572.821 363.653 573.15 363.794C573.63 364.002 573.983 364.266 574.212 364.586C574.44 364.902 574.555 365.268 574.555 365.683C574.555 366.095 574.429 366.484 574.178 366.85C573.927 367.212 573.566 367.495 573.094 367.699C572.626 367.9 572.098 368 571.51 368C570.765 368 570.14 367.898 569.634 367.694C569.133 367.49 568.738 367.184 568.449 366.776C568.165 366.364 568.015 365.9 568 365.383Z" fill="#ADAFB2"/>
<path d="M576.065 367.868V360.132H582.019V361.045H577.155V363.414H581.71V364.322H577.155V366.955H582.21V367.868H576.065Z" fill="#ADAFB2"/>
<path d="M583.715 367.868V360.132H586.821C587.368 360.132 587.785 360.157 588.074 360.206C588.478 360.269 588.817 360.391 589.09 360.57C589.363 360.746 589.583 360.994 589.747 361.314C589.916 361.634 590 361.986 590 362.369C590 363.027 589.777 363.585 589.332 364.042C588.886 364.496 588.081 364.723 586.917 364.723H584.805V367.868H583.715ZM584.805 363.81H586.933C587.637 363.81 588.137 363.687 588.433 363.441C588.729 363.194 588.877 362.848 588.877 362.401C588.877 362.077 588.789 361.801 588.613 361.573C588.44 361.34 588.212 361.187 587.927 361.113C587.744 361.068 587.405 361.045 586.911 361.045H584.805V363.81Z" fill="#ADAFB2"/>
<path d="M10 77.7944L10.9685 77.6662C11.0797 78.2109 11.2681 78.6044 11.5335 78.8465C11.8026 79.085 12.129 79.2043 12.5128 79.2043C12.9684 79.2043 13.3522 79.0476 13.6643 78.7343C13.98 78.421 14.1378 78.0329 14.1378 77.5701C14.1378 77.1286 13.9925 76.7655 13.702 76.4806C13.4114 76.1923 13.0419 76.0481 12.5935 76.0481C12.4106 76.0481 12.1828 76.0837 11.9102 76.1549L12.0178 75.3111C12.0824 75.3182 12.1344 75.3218 12.1738 75.3218C12.5864 75.3218 12.9576 75.215 13.2877 75.0013C13.6177 74.7877 13.7827 74.4584 13.7827 74.0134C13.7827 73.6609 13.6625 73.3689 13.4222 73.1375C13.1818 72.9061 12.8716 72.7904 12.4913 72.7904C12.1147 72.7904 11.8008 72.9079 11.5497 73.1429C11.2986 73.3778 11.1371 73.7303 11.0654 74.2003L10.0969 74.0294C10.2152 73.385 10.4843 72.8865 10.904 72.534C11.3237 72.178 11.8456 72 12.4698 72C12.9002 72 13.2966 72.0926 13.6589 72.2777C14.0212 72.4593 14.2975 72.7085 14.4876 73.0254C14.6813 73.3422 14.7781 73.6787 14.7781 74.0347C14.7781 74.3729 14.6867 74.6809 14.5037 74.9586C14.3208 75.2363 14.0499 75.4571 13.6912 75.6208C14.1576 75.7276 14.5199 75.9502 14.7781 76.2884C15.0364 76.6231 15.1656 77.0432 15.1656 77.5487C15.1656 78.2323 14.9145 78.8126 14.4123 79.2897C13.91 79.7632 13.2751 80 12.5075 80C11.8151 80 11.2394 79.7953 10.7802 79.3858C10.3246 78.9764 10.0646 78.4459 10 77.7944Z" fill="#ADAFB2"/>
<path d="M16.4785 79.8611V72.032H17.5224V75.9146L21.4396 72.032H22.8547L19.5455 75.2043L23 79.8611H21.6225L18.8137 75.8985L17.5224 77.1482V79.8611H16.4785Z" fill="#ADAFB2"/>
<path d="M15.1632 121.942V123H10.0009C9.99375 122.735 10.031 122.48 10.1127 122.236C10.2441 121.832 10.4537 121.435 10.7414 121.043C11.0326 120.652 11.4517 120.2 11.9987 119.686C12.8475 118.887 13.4211 118.255 13.7195 117.791C14.0178 117.322 14.167 116.88 14.167 116.464C14.167 116.028 14.0302 115.661 13.7568 115.363C13.4868 115.062 13.1334 114.911 12.6966 114.911C12.2349 114.911 11.8655 115.07 11.5885 115.388C11.3114 115.706 11.1711 116.146 11.1676 116.709L10.182 116.592C10.2495 115.749 10.5034 115.107 10.9438 114.666C11.3842 114.222 11.9756 114 12.7179 114C13.4673 114 14.0604 114.238 14.4973 114.715C14.9341 115.192 15.1526 115.783 15.1526 116.488C15.1526 116.847 15.0886 117.2 14.9608 117.546C14.8329 117.893 14.6198 118.257 14.3215 118.641C14.0267 119.024 13.5348 119.55 12.8457 120.218C12.2704 120.772 11.901 121.149 11.7376 121.349C11.5742 121.545 11.4393 121.743 11.3327 121.942H15.1632Z" fill="#ADAFB2"/>
<path d="M16.543 123V114.037H17.5766V118.482L21.455 114.037H22.8562L19.5797 117.668L23 123H21.6362L18.8552 118.463L17.5766 119.894V123H16.543Z" fill="#ADAFB2"/>
<path d="M13.8434 167H12.8956V159.987C12.6674 160.24 12.3673 160.493 11.9952 160.745C11.6266 160.998 11.2949 161.188 11 161.314V160.25C11.5301 159.961 11.9934 159.61 12.3901 159.198C12.7867 158.787 13.0676 158.387 13.2326 158H13.8434V167Z" fill="#ADAFB2"/>
<path d="M16.6183 167V158.037H17.6398V162.482L21.473 158.037H22.8578L19.6196 161.668L23 167H21.652L18.9035 162.463L17.6398 163.894V167H16.6183Z" fill="#ADAFB2"/>
<path d="M17 206.003C17 205.076 17.0924 204.332 17.2772 203.769C17.4655 203.202 17.7427 202.766 18.1088 202.46C18.4784 202.153 18.9421 202 19.5 202C19.9114 202 20.2723 202.086 20.5826 202.257C20.893 202.424 21.1492 202.668 21.3515 202.989C21.5537 203.306 21.7123 203.694 21.8274 204.154C21.9425 204.61 22 205.226 22 206.003C22 206.922 21.9076 207.665 21.7228 208.231C21.538 208.794 21.2608 209.23 20.8912 209.54C20.5251 209.847 20.0614 210 19.5 210C18.7608 210 18.1803 209.729 17.7584 209.188C17.2528 208.536 17 207.474 17 206.003ZM17.9676 206.003C17.9676 207.289 18.114 208.146 18.4069 208.573C18.7033 208.997 19.0676 209.209 19.5 209.209C19.9324 209.209 20.295 208.995 20.5879 208.568C20.8842 208.14 21.0324 207.285 21.0324 206.003C21.0324 204.713 20.8842 203.856 20.5879 203.432C20.295 203.008 19.9289 202.796 19.4895 202.796C19.0572 202.796 18.712 202.983 18.454 203.357C18.1297 203.835 17.9676 204.717 17.9676 206.003Z" fill="#ADAFB2"/>
<path d="M6 250.609V249.625H9.01411V250.609H6Z" fill="#ADAFB2"/>
<path d="M13.5216 253H12.5406V246.766C12.3044 246.991 11.9937 247.216 11.6085 247.44C11.227 247.665 10.8836 247.833 10.5784 247.946V247C11.1271 246.743 11.6067 246.431 12.0173 246.065C12.4279 245.699 12.7186 245.344 12.8894 245H13.5216V253Z" fill="#ADAFB2"/>
<path d="M16.394 253V245.033H17.4514V248.984L21.4194 245.033H22.8528L19.5008 248.261L23 253H21.6047L18.7595 248.967L17.4514 250.239V253H16.394Z" fill="#ADAFB2"/>
<path d="M6 294.609V293.625H9.01411V294.609H6Z" fill="#ADAFB2"/>
<path d="M14.9824 296.06V297H9.70087C9.6936 296.764 9.73175 296.538 9.81533 296.321C9.94977 295.962 10.1642 295.609 10.4585 295.261C10.7564 294.913 11.1852 294.511 11.7448 294.054C12.6132 293.344 13.2001 292.783 13.5053 292.37C13.8105 291.953 13.9631 291.56 13.9631 291.19C13.9631 290.803 13.8232 290.476 13.5434 290.212C13.2673 289.944 12.9057 289.81 12.4588 289.81C11.9864 289.81 11.6085 289.951 11.3251 290.234C11.0417 290.516 10.8982 290.908 10.8945 291.408L9.88618 291.304C9.95522 290.554 10.215 289.984 10.6656 289.592C11.1162 289.197 11.7212 289 12.4806 289C13.2473 289 13.8541 289.212 14.3011 289.636C14.748 290.06 14.9715 290.585 14.9715 291.212C14.9715 291.531 14.9061 291.844 14.7752 292.152C14.6444 292.46 14.4264 292.784 14.1212 293.125C13.8196 293.466 13.3163 293.933 12.6114 294.527C12.0228 295.02 11.6449 295.355 11.4777 295.533C11.3106 295.707 11.1725 295.882 11.0635 296.06H14.9824Z" fill="#ADAFB2"/>
<path d="M16.394 297V289.033H17.4514V292.984L21.4194 289.033H22.8528L19.5008 292.261L23 297H21.6047L18.7595 292.967L17.4514 294.239V297H16.394Z" fill="#ADAFB2"/>
<path d="M6 338.511V337.545H9.01411V338.511H6Z" fill="#ADAFB2"/>
<path d="M9.83168 338.794L10.8128 338.666C10.9254 339.211 11.1162 339.604 11.3851 339.846C11.6576 340.085 11.9882 340.204 12.377 340.204C12.8385 340.204 13.2273 340.048 13.5434 339.734C13.8632 339.421 14.0231 339.033 14.0231 338.57C14.0231 338.129 13.8759 337.765 13.5816 337.481C13.2873 337.192 12.913 337.048 12.4588 337.048C12.2735 337.048 12.0427 337.084 11.7666 337.155L11.8756 336.311C11.941 336.318 11.9937 336.322 12.0337 336.322C12.4515 336.322 12.8276 336.215 13.1619 336.001C13.4962 335.788 13.6634 335.458 13.6634 335.013C13.6634 334.661 13.5416 334.369 13.2982 334.138C13.0547 333.906 12.7404 333.79 12.3552 333.79C11.9737 333.79 11.6558 333.908 11.4014 334.143C11.1471 334.378 10.9835 334.73 10.9109 335.2L9.92979 335.029C10.0497 334.385 10.3222 333.887 10.7474 333.534C11.1725 333.178 11.7012 333 12.3334 333C12.7695 333 13.171 333.093 13.538 333.278C13.905 333.459 14.1848 333.709 14.3774 334.025C14.5736 334.342 14.6717 334.679 14.6717 335.035C14.6717 335.373 14.579 335.681 14.3937 335.959C14.2084 336.236 13.9341 336.457 13.5707 336.621C14.0431 336.728 14.4101 336.95 14.6717 337.288C14.9333 337.623 15.0641 338.043 15.0641 338.549C15.0641 339.232 14.8098 339.813 14.3011 340.29C13.7923 340.763 13.1492 341 12.3716 341C11.6703 341 11.0871 340.795 10.622 340.386C10.1605 339.976 9.89708 339.446 9.83168 338.794Z" fill="#ADAFB2"/>
<path d="M16.394 340.861V333.032H17.4514V336.915L21.4194 333.032H22.8528L19.5008 336.204L23 340.861H21.6047L18.7595 336.899L17.4514 338.148V340.861H16.394Z" fill="#ADAFB2"/>
<path d="M78 197.726C78 191.25 72.8513 186 66.5 186C60.1487 186 55 191.25 55 197.726V272.274C55 278.75 60.1487 284 66.5 284C72.8513 284 78 278.75 78 272.274V197.726Z" fill="#117FA2"/>
<path d="M78 96.6343C78 90.2088 72.8513 85 66.5 85C60.1487 85 55 90.2088 55 96.6343V226.366C55 232.791 60.1487 238 66.5 238C72.8513 238 78 232.791 78 226.366V96.6343Z" fill="#FFBD2F"/>
<path d="M78 139.623C78 133.204 72.8513 128 66.5 128C60.1487 128 55 133.204 55 139.623V226.377C55 232.796 60.1487 238 66.5 238C72.8513 238 78 232.796 78 226.377V139.623Z" fill="#117FA2"/>
<path d="M142 90.6234C142 84.204 136.851 79 130.5 79C124.149 79 119 84.204 119 90.6234V177.377C119 183.796 124.149 189 130.5 189C136.851 189 142 183.796 142 177.377V90.6234Z" fill="#FF3A44"/>
<path d="M142 133.623C142 127.204 136.851 122 130.5 122C124.149 122 119 127.204 119 133.623V330.377C119 336.796 124.149 342 130.5 342C136.851 342 142 336.796 142 330.377V133.623Z" fill="#E1E1E1"/>
<path d="M207 124.69C207 118.234 201.627 113 195 113C188.373 113 183 118.234 183 124.69V226.31C183 232.766 188.373 238 195 238C201.627 238 207 232.766 207 226.31V124.69Z" fill="#0489CA"/>
<path d="M207 196.702C207 190.239 201.627 185 195 185C188.373 185 183 190.239 183 196.702V301.298C183 307.761 188.373 313 195 313C201.627 313 207 307.761 207 301.298V196.702Z" fill="#E1E1E1"/>
<path d="M207 196.655C207 190.218 201.627 185 195 185C188.373 185 183 190.218 183 196.655V226.345C183 232.782 188.373 238 195 238C201.627 238 207 232.782 207 226.345V196.655Z" fill="#0489CA"/>
<path d="M270 81.683C270 75.2307 264.851 70 258.5 70C252.149 70 247 75.2307 247 81.683V226.317C247 232.769 252.149 238 258.5 238C264.851 238 270 232.769 270 226.317V81.683Z" fill="#FFBD2F"/>
<path d="M270 173.564C270 169.939 264.851 167 258.5 167C252.149 167 247 169.939 247 173.564V256.436C247 260.061 252.149 263 258.5 263C264.851 263 270 260.061 270 256.436V173.564Z" fill="#117FA1"/>
<path d="M270 249.965C270 243.357 264.851 238 258.5 238C252.149 238 247 243.357 247 249.965V251.035C247 257.643 252.149 263 258.5 263C264.851 263 270 257.643 270 251.035V249.965Z" fill="#117FA2"/>
<path d="M334 110.659C334 104.22 328.851 99 322.5 99C316.149 99 311 104.22 311 110.659V226.341C311 232.78 316.149 238 322.5 238C328.851 238 334 232.78 334 226.341V110.659Z" fill="#FF3A44"/>
<path d="M334 153.674C334 147.227 328.851 142 322.5 142C316.149 142 311 147.227 311 153.674V262.326C311 268.773 316.149 274 322.5 274C328.851 274 334 268.773 334 262.326V153.674Z" fill="#FF3A44"/>
<path d="M334 249.696C334 243.237 328.851 238 322.5 238C316.149 238 311 243.237 311 249.696V272.304C311 278.763 316.149 284 322.5 284C328.851 284 334 278.763 334 272.304V249.696Z" fill="#117FA2"/>
<path d="M398 96.6343C398 90.2088 392.627 85 386 85C379.373 85 374 90.2088 374 96.6343V226.366C374 232.791 379.373 238 386 238C392.627 238 398 232.791 398 226.366V96.6343Z" fill="#FFBD2F"/>
<path d="M398 139.668C398 133.224 392.627 128 386 128C379.373 128 374 133.224 374 139.668V301.332C374 307.776 379.373 313 386 313C392.627 313 398 307.776 398 301.332V139.668Z" fill="#FFBD2F"/>
<path d="M398 249.735C398 243.254 392.627 238 386 238C379.373 238 374 243.254 374 249.735V301.265C374 307.746 379.373 313 386 313C392.627 313 398 307.746 398 301.265V249.735Z" fill="#117FA2"/>
<path d="M462 96.6343C462 90.2088 456.851 85 450.5 85C444.149 85 439 90.2088 439 96.6343V226.366C439 232.791 444.149 238 450.5 238C456.851 238 462 232.791 462 226.366V96.6343Z" fill="#FF3A44"/>
<path d="M462 179.315C462 175.275 456.851 172 450.5 172C444.149 172 439 175.275 439 179.315V262.685C439 266.725 444.149 270 450.5 270C456.851 270 462 266.725 462 262.685V179.315Z" fill="#E1E1E1"/>
<path d="M462 249.835C462 243.299 456.851 238 450.5 238C444.149 238 439 243.299 439 249.835V258.165C439 264.701 444.149 270 450.5 270C456.851 270 462 264.701 462 258.165V249.835Z" fill="#E1E1E1"/>
<path d="M525 96.6343C525 90.2088 519.851 85 513.5 85C507.149 85 502 90.2088 502 96.6343V226.366C502 232.791 507.149 238 513.5 238C519.851 238 525 232.791 525 226.366V96.6343Z" fill="#FFBD2F"/>
<path d="M525 153.623C525 147.204 519.851 142 513.5 142C507.149 142 502 147.204 502 153.623V280.377C502 286.796 507.149 292 513.5 292C519.851 292 525 286.796 525 280.377V153.623Z" fill="#FFBD2F"/>
<path d="M525 249.68C525 243.229 519.851 238 513.5 238C507.149 238 502 243.229 502 249.68V315.32C502 321.771 507.149 327 513.5 327C519.851 327 525 321.771 525 315.32V249.68Z" fill="#117FA2"/>
<path d="M590 96.6343C590 90.2088 584.627 85 578 85C571.373 85 566 90.2088 566 96.6343V226.366C566 232.791 571.373 238 578 238C584.627 238 590 232.791 590 226.366V96.6343Z" fill="#0489CA"/>
<path d="M590 167.659C590 161.22 584.627 156 578 156C571.373 156 566 161.22 566 167.659V283.341C566 289.78 571.373 295 578 295C584.627 295 590 289.78 590 283.341V167.659Z" fill="#0489CA"/>
<path d="M590 249.735C590 243.254 584.627 238 578 238C571.373 238 566 243.254 566 249.735V301.265C566 307.746 571.373 313 578 313C584.627 313 590 307.746 590 301.265V249.735Z" fill="#E1E1E1"/>
</svg>
