<svg width="1600" height="3462" viewBox="0 0 1600 3462" fill="none" xmlns="http://www.w3.org/2000/svg">
<path d="M1600 246.43V3462H6.76841e-05V255.629C-0.000136343 237.231 0.00018594 84.2413 0.00018594 84.2413C6.00027 70.2011 24.0003 65.7165 37.786 64.8345C53.6462 63.8197 68.4983 68.2923 79.5112 76.2602C88.6629 54.8746 112.55 38.7884 142.06 36.9092C170.33 35.0676 196.078 46.7188 209.767 65.2103C219.035 57.9565 231.328 53.1833 245.171 52.2813C257.076 51.492 268.438 53.7095 278.171 58.1068C285.19 28.34 315.941 4.73692 354.952 2.18117C384.19 0.264365 411.219 10.6377 428.32 27.8889C445.149 12.4793 469.114 2.03083 496.375 0.264364C542.521 -2.70481 583.857 19.6204 599.717 52.9578C608.752 49.1993 618.757 46.7563 629.46 46.0422C665.291 43.712 697.399 61.3015 709.343 87.3852C721.945 77.7259 738.465 71.3742 757.001 70.1339C757.582 70.0963 758.164 70.1339 758.746 70.0963C773.404 41.7576 806.521 20.8982 846.85 18.2297C867.868 16.8767 887.877 20.5976 905.095 28.2272C918.008 12.6672 939.142 1.84291 963.882 0.226782C1003.82 -2.40413 1039.15 19.7707 1047.06 50.8531C1059.9 39.8784 1077.54 32.587 1097.55 31.2715C1108.68 30.5574 1119.5 31.7601 1129.39 34.5414C1141.91 17.1398 1164.33 4.81208 1190.89 3.04561C1232.3 0.377116 1268.68 24.1681 1274.81 56.9793C1290.98 33.94 1320.41 17.5156 1355.42 15.223C1399.09 12.3666 1438.56 32.3239 1456.05 62.7297C1467.49 46.3429 1488.36 34.7293 1513.17 33.1508C1551.99 30.595 1595.35 53.0699 1600 84.2275C1600 84.2413 1600 84.2413 1600 84.2275V246.43Z" fill="#0B4C61"/>
</svg>
